<svg xmlns="http://www.w3.org/2000/svg" width="51.305" height="60.151" viewBox="0 0 51.305 60.151">
    <defs>
        <style>
            .cls-1{fill:#fff}
        </style>
    </defs>
    <g id="logo" transform="translate(-113.134 -113.134)">
        <g id="SvgjsG13658" transform="translate(122.888 113.134)">
            <path id="패스_6169" d="M599.608 113.134h31.984v43.553h-31.984zm.907.907v41.739h30.17v-41.739z" class="cls-1" transform="translate(-599.608 -113.134)"/>
        </g>
        <g id="SvgjsG13659" transform="translate(126.517 116.31)">
            <path id="패스_6170" d="M782.4 308.621l-.5-.165a1.067 1.067 0 0 1-.454-.289.994.994 0 0 0-.331-.248.472.472 0 0 1-.289-.331l-.165-.413c-.041-.041-.041-.124-.041-.248a2.483 2.483 0 0 1 .083-.661 20.823 20.823 0 0 1 .744-2.561l.372-1.074c.248-.7.785-1.983 1.157-2.851l.33-.785a6.5 6.5 0 0 1 .413-.95c.165-.413.413-.868.5-1.115.041-.165.124-.331.207-.331.041 0 .041 0 .041-.041l-.041-.083-.083-.083-.289.083-.5-.083c-.578-.082-1.115-.372-1.115-.578v-.041c0-.083 0-.124-.041-.124a1.256 1.256 0 0 1-.207-.372l-.289-.537a1.478 1.478 0 0 1-.165-.785c0-.372.083-.7.207-.7h.041l.33-.083a.68.68 0 0 1 .372-.083h.165l1.653-.083.207-.041.207.041a2.962 2.962 0 0 0 .537-.041l.537-.083c.207-.041.248-.124.744-1.033l.454-.909a3.111 3.111 0 0 0 .331-.578c.413-.785 1.57-2.851 1.859-3.264l.207-.372a9.619 9.619 0 0 1 1.281-1.983c.041 0 .083 0 .083-.041a3.1 3.1 0 0 1 .537-1.033l.124-.248.454-.744a3.574 3.574 0 0 0 .455-.785l.165-.331c.124-.124.413-.578.7-.992a14.537 14.537 0 0 0 1.818-2.851.221.221 0 0 1 .124-.165 3.478 3.478 0 0 0 .5-.537l.62-.785.331-.5h.041a.089.089 0 0 0 .083-.083c.041-.041.248-.372.537-.7a3.479 3.479 0 0 0 .537-.826c.041-.207.454-.661.578-.661h.083c.083 0 .207-.207.207-.331a.372.372 0 0 1 .248-.248h.083a.221.221 0 0 0 .165-.124c.124-.083.165-.165.165-.207h-.124c0-.041.165-.165.537-.5.455-.372.744-.537.95-.537h.041a1.573 1.573 0 0 1 .661.454c.041.041.083.124.165.124a4.876 4.876 0 0 1 1.281 1.4 1.991 1.991 0 0 1 .537 1.363 11.231 11.231 0 0 1 .041 1.157c-.041.578-.5 3.429-.744 4.421l-1.942 8.222c-.248 1.115-.578 2.4-.661 2.851a3.029 3.029 0 0 0-.165.744.11.11 0 0 0 .124.124l.124.041-.124.041c-.083 0-.124.083-.165.124 0 .083.248.124.413.124.124 0 .206 0 .248-.041l.165-.041a.248.248 0 0 1 .165.041l.165.041.289-.124.248.083.207.041v-.041l.041-.083.083.083.124.041.165-.041.248.083.165-.083a1.246 1.246 0 0 1 .661.207.841.841 0 0 0 .454.083h.289a2.441 2.441 0 0 1 .826.083l-.041.041a.184.184 0 0 0-.165.124v.041c0 .041-.041.083-.124.083s-.207.041-.207.083l.041.083.248-.041c.207 0 .413.041.413.124a5.989 5.989 0 0 1-1.116.124h-.124a.2.2 0 0 1-.124-.041l-.289.083-.165.124.248.041.206-.041.041.124c0 .083.041.165.083.165l.083.041c0 .041-.083.083-.165.083l-.537-.083-.207.041-.289-.041-.661.083-.331-.041-.331.041-.165.041c-.041 0-.083-.041-.124-.083l-.083-.083-.041.041c-.041.041-.083.041-.165.041h-.083c-.124 0-.207 0-.248.041l-.083.041-.165-.083v.124l-.248-.083-.165.041-.124.083.578.248c.041 0 .041-.041.041-.083s.041-.083.124-.083l.041.083v.041l.041.083a.316.316 0 0 0 .207-.083c0-.041.165-.083.289-.124.165 0 .248 0 .248.041v.041c0 .083.041.124.248.124h.372a1.748 1.748 0 0 0 .661-.083c0-.041.207-.083.413-.083a1.723 1.723 0 0 1 .868.165v.041c0 .041-.083.083-.207.083h-.124l-.041-.041.124-.083-.5-.041a1.206 1.206 0 0 0-.372.083 1.9 1.9 0 0 1-.826.124h-1.116l-.248.041-.165-.041-.165.083a.549.549 0 0 1-.289.124h-.124c-.207 0-.248.124-.33.578l-.207 1.322c-.041.413-.124 1.033-.124 1.322l-.124 1.735-.083.992a27.87 27.87 0 0 0-.207 3.429l.041 2.107c0 .289-.041.5-.124.5h-.041l-.331.041-.207.083-.083-.041c-.083-.041-.124-.041-.124-.083-.041 0-.041-.041-.041-.083v-.083l-.041-.083a.089.089 0 0 0-.083.083h-.041l-.083-.124a.665.665 0 0 0-.454-.331 1.7 1.7 0 0 1-1.115-1.487v-.083c0-.248 0-.372-.124-.454l-.083-.165.041-.165-.041-.248a1.605 1.605 0 0 1-.083-.62v-.992a.981.981 0 0 1 .124-.62c.083-.041.083-.083.083-.165l-.083-.5.041-.165-.041-.041c-.041 0-.041-.041-.041-.083 0-.124.083-.289.124-.289a.089.089 0 0 0 .083-.083l-.124-.413a.214.214 0 0 1 .083-.165 2.125 2.125 0 0 0 .083-.661c0-.165 0-.289-.041-.331s-.041-.124-.041-.248c0-.165.041-.372.083-.372a.132.132 0 0 0 .124-.124v-.083l-.165.124-.041-.041.165-.454-.083-.207.083-.041c.083-.041.124-.207.165-.578l.041-.372-.041-.165v-.289c0-.124-.041-.124-.165-.207l-.124-.041a.089.089 0 0 0-.083.083c-.041.083-.372.124-.868.124a11.667 11.667 0 0 0-1.322.041l-1.2.041a3.616 3.616 0 0 1-.826-.083l-.372-.041c-.207 0-.372.041-.372.124-.041.041-.083.041-.165.041h-.5l-1.033.124c-.165 0-.248-.041-.248-.083l-.165-.041a1.6 1.6 0 0 0-.7.165.309.309 0 0 1-.207.041h-.083a.443.443 0 0 0-.248.083l-.331.083c-.083 0-.124.041-.165.165v.041c0 .083.041.124.083.124s.124-.083.165-.165l.083-.124h.041l-.041.165c-.041.124-.083.248-.165.289a.51.51 0 0 0-.165.33c0 .041 0 .083.041.083s.041.041.041.083a1.148 1.148 0 0 1-.289.537c-.083.124-.165.207-.207.207l-.083.041a1.036 1.036 0 0 0-.083.413.334.334 0 0 1-.289.372h-.114a.11.11 0 0 0-.124.124v.041c0 .083.041.124.165.124.083 0 .124.041.124.083a.428.428 0 0 1-.207.289.309.309 0 0 0-.124.124v.083l-.083.372-.992 2.355a2.214 2.214 0 0 0-.207.454l-.248.661c-.083.248-.165.372-.207.372h-.041c-.041 0-.083.083-.083.165l.041.165-.041.413c-.083.165-.124.413-.165.5-.041.207-.537 1.818-.62 1.983l-.207.578c-.083.248-.124.372-.207.372l-.083-.041-.083.124a.089.089 0 0 1-.083.083h-.041c-.041 0-.124.041-.165.165-.041.083-.041.165-.124.165zm17.888-33.221l.083-.041.041-.041-.041-.041a.152.152 0 0 0-.124.041c0 .041 0 .083.041.083zm-.248.248a.089.089 0 0 0 .083-.083c0-.041 0-.083-.041-.083h-.041a.215.215 0 0 0-.165.083c0 .041.041.083.124.083zm-1.446-.33a.152.152 0 0 0 .041-.124l-.083.041c0 .083 0 .083.041.083zm1.57.537l.165-.083c.041-.041.083-.041.083-.083l-.124.041c-.124.041-.206.041-.206.083zm-1.983-.207c.083 0 .165 0 .165-.041l.041-.041-.041-.083a.249.249 0 0 0-.165.041l-.083.083zm-8.428 17.187l.33-.041.909-.041-.289-.165.207-.041a.641.641 0 0 1 .331.083h.083c.083 0 .124 0 .165-.041a.31.31 0 0 1 .207-.041c.041 0 .124 0 .124.083 0 .041 0 .124.041.124a15.661 15.661 0 0 0 1.611-.083h.868l1.363-.041c.248 0 .661-.041.661-.124 0-.041.124-.041.248-.041.33 0 .372-.041.413-.5v-.289c-.041 0-.041.041-.083.165l-.041.124-.041-.041.041-.331c.041-.207.083-.331.124-.331l.041.207.083-.248a4.992 4.992 0 0 0 .248-1.4c0-.124 0-.248-.041-.248l-.041-.083h.083c.083 0 .124-.083.165-.207 0-.124 0-.207-.041-.248-.041 0-.083-.083-.083-.165s.041-.165.083-.165a.184.184 0 0 0 .165-.124v-.082h-.041c-.083 0-.083-.041-.083-.083l.083-.083a32.5 32.5 0 0 0 1.115-4.586v-.041a.308.308 0 0 0-.124.124l-.041.041.041-.124c0-.124.041-.207.083-.207l.083.041.083-.083v-.041l-.083-.041-.041-.083.041-.165.083-.124.041.207.041-.083a19.592 19.592 0 0 0 .661-2.768l-.041-.124h.041c.124 0 .289-.5.289-.785v-.083a1.825 1.825 0 0 1 .207-.785 1.556 1.556 0 0 0 .165-.578c0-.041 0-.083-.041-.083h-.083l.083-.165-.124-.083.041-.041a.443.443 0 0 0 .083-.248l.041-.165h.041c.041 0 .124-.124.165-.248v-.289c-.041 0-.083 0-.083-.083l.041-.331c0-.165 0-.248-.041-.248s-.165.124-.331.33c-.165.248-.331.372-.372.372l-.083-.041c-.041 0-.041.041-.041.124a.152.152 0 0 0 .041.124c.083.041.083.083.083.124h-.124q-.062 0-.124.124c0 .041-.124.165-.289.248-.083.041-.124.041-.124.083h.124l-.083.165.041.124h-.124c-.083 0-.083.041-.165.207 0 .041-.083.124-.165.165s-.165.083-.165.124a.409.409 0 0 1-.289.207.6.6 0 0 0-.289.413c-.041.124-.083.207-.124.207h-.041c-.041 0-.083.041-.165.124-.041.083-.124.165-.165.165l-.124-.041-.041.041.083.165a1.208 1.208 0 0 1-.248.413c-.165.207-.248.331-.289.331l-.083-.165-.083.083-.124-.083-.083.041c0 .041.083.124.165.165.041.041.083.083.083.124a.908.908 0 0 0-.124.331c-.041.165-.124.248-.207.248a.184.184 0 0 0-.165.124c0 .083 0 .124.041.124l.165-.083-.083.165-.083.041h-.083c-.083 0-.248.207-.372.578a1.253 1.253 0 0 1-.207.413l-.206.372a.888.888 0 0 1-.372.5c-.454.289-.62.413-.62.454h.083v.124c0 .083.041.165.083.165l.083.041h-.083c-.083 0-.083.083-.083.165v.083l-.124-.041-.124.083c-.124.083-.165.124-.165.207l.124.207q0 .062-.124.124c-.041.041-.083.083-.083.124l-.124.083c-.083.041-.124.041-.124.207v.165c0 .124 0 .207-.041.207h-.041c-.083 0-.165.124-.207.248a.712.712 0 0 1-.248.248c-.041.041-.083.083-.083.124v.041l-.165.331.041.124.083.041h-.083a.629.629 0 0 0-.248.165 2.216 2.216 0 0 0-.248.537c-.083.165-.165.248-.207.248s-.041 0-.041.041v.041a.377.377 0 0 1-.124.207.257.257 0 0 0-.165.248c0 .041 0 .083-.041.083-.083 0-.083.041-.083.165s-.041.165-.165.165h-.165c-.124 0-.248 0-.248.083v.041c0 .041.041.083.124.083.041 0 .124-.041.124-.083l.083-.041.041.083c0 .124-.124.331-.207.331h-.041c-.083 0-.165.124-.207.33a9.258 9.258 0 0 1-.785 1.57l-.207.413c0 .124-.041.207-.124.207l-.124.207c0 .083-.041.165-.083.165h-.083v.041l-.165.537v.041zm9.006-16.526c.041 0 .083-.041.124-.165 0-.124 0-.165-.041-.165l-.083.041c-.041.041-.083.083-.083.124v.041c0 .083.041.124.083.124zm-.206.248c.041-.041.083-.083.083-.124v-.033h-.083c-.041.041-.083.083-.083.124s0 .037.083.037zm.454.289l.083-.083.041-.083h-.041c-.041 0-.083.041-.124.083 0 .046 0 .088.041.088zm-.868.041l.124-.041c.124-.083.165-.124.165-.165h-.041q-.062 0-.124.124zm1.115.413l.083-.041.041-.041-.083-.041c-.041 0-.083 0-.083.041s0 .083.041.083zm-1.446.124l.165-.124.083-.083-.083-.041a.221.221 0 0 0-.165.124zm.454.372a.152.152 0 0 0 .124-.041c0-.041 0-.083-.041-.083l-.083.041-.041.041zm.455.083a.152.152 0 0 0 .041-.124l-.083.041c0 .083 0 .083.041.083zm-1.611.372c.124 0 .207-.083.372-.33l.207-.331c0-.041 0-.041-.041-.041l-.083.041c-.083.041-.165.083-.165.165a.482.482 0 0 1-.248.248c-.124.124-.165.165-.165.207zm1.57-.165c.041 0 .041-.041.041-.083h-.041l-.041.041v.041zm-2.355-.372v-.124c-.041 0-.041 0-.041.041v.083zm3.636.992h-.041v-.041c0-.041 0-.083.041-.083l.041.083zm-2.231-.083c.041 0 .083-.041.083-.124a.7.7 0 0 0-.041-.289v-.083c-.041.041-.041.083-.041.207l-.041.207zm-2.4-.909v-.124c-.041 0-.041.041-.041.083v.041zm1.074 1.57l.165-.041a.774.774 0 0 0 .248-.289.351.351 0 0 1 .124-.207.421.421 0 0 0 .207-.331c0-.041 0-.083-.041-.083a.629.629 0 0 0-.248.165l-.289.413a1.155 1.155 0 0 0-.207.331c.004.046.004.046.041.046zm1.157-.165c.041 0 .041-.083.041-.124v-.041h-.041l-.041.165zm-1.653-.248v-.083h-.041v.083zm-3.388 6.4a.486.486 0 0 0 .248-.207l.165-.289a14.931 14.931 0 0 1 1.074-1.653c.083-.165.826-1.322.909-1.529a6.329 6.329 0 0 1 .537-.785 7.479 7.479 0 0 0 .868-1.4c-.041 0-.124.083-.165.165s-.124.165-.165.165h-.041v.041a.718.718 0 0 1-.124.289 3.194 3.194 0 0 0-.661.909.275.275 0 0 1-.165.207.413.413 0 0 0-.165.207c-.041.207-.083.331-.165.331h-.124l.041.083.083.083-.083.083a.323.323 0 0 0-.165.165 1.084 1.084 0 0 1-.248.33 1.469 1.469 0 0 0-.331.5.9.9 0 0 1-.248.413.739.739 0 0 0-.207.289.587.587 0 0 1-.083.248.629.629 0 0 0-.165.248l-.207.289c-.041.083-.124.165-.124.207v.041a.378.378 0 0 1-.124.207 1.1 1.1 0 0 0-.207.248v.041c0 .083 0 .083.041.083zm2.4-5.66a.34.34 0 0 0 .248-.165l.083-.207h-.041c-.083 0-.289.207-.331.289v.041c0 .041 0 .041.041.041zm-.331-.165a.367.367 0 0 0 .207-.165c0-.041 0-.041-.041-.041l-.083.041a.221.221 0 0 0-.124.165zm2.148.413l.041-.041v-.041l-.083.041a.041.041 0 0 0 .041.041zm.165.207v-.124c-.041 0-.041 0-.041.041v.083zm2.479.909v-.165c.041-.083.041-.124.083-.124a.767.767 0 0 1-.081.296zm-4.751-.868l.083-.041-.041-.083c-.041 0-.041 0-.041.041v.083zm1.818.578v-.124c-.041 0-.041 0-.041.041v.041c0 .041 0 .041.041.041zm2.561 1.611l.041-.372c.083-.248.165-.455.207-.455l.041.041-.083.372c-.124.289-.165.413-.207.413zm-4.792-1.4c.041 0 .083-.041.124-.083a.221.221 0 0 0 .124-.165h-.041a.152.152 0 0 0-.124.041l-.041.041v-.041c0-.083 0-.083-.041-.083s-.041.083-.041.165zm-.248.083l.083-.083.041-.083h-.041l-.124.124c0 .041 0 .041.041.041zm.372.248c.041 0 .041-.083.041-.083a.041.041 0 0 0-.041-.041l-.041.083v.041zm-.5.041c.041 0 .041-.083.041-.124a.041.041 0 0 0-.041-.041l-.041.083c0 .041 0 .083.041.083zm1.653.744a.215.215 0 0 0 .165-.083.408.408 0 0 0 .083-.248.152.152 0 0 0-.124.041c-.083.083-.165.165-.165.207zm.5-.083h-.041v-.041c0-.083.041-.083.041-.083.041 0 .041 0 .041.041.001.004.001.086-.04.086zm-2.272.289c.041 0 .041-.083.083-.165v-.124l-.083.041-.041.124zm-.207.248l.041-.083v-.124l-.124.165.041.041zm-.455-.083c.083 0 .083 0 .083-.041-.041 0-.041 0-.041-.041l-.083.041zm.372.62l.083-.041.289-.248h-.124c-.124 0-.206.124-.248.248zm-.248-.331l.041-.041c0-.041 0-.041-.041-.041h-.041zm1.487.372c0-.041-.041-.083-.083-.124h-.041v.041c.041.041.041.083.083.083zm.083.124a.152.152 0 0 0 .041-.124l-.083.041zm6.569 1.487c.041 0 .041-.041.041-.083l-.041-.041-.041.083a.04.04 0 0 0 .043.045zm-2.768-.413h-.041l.041-.124.041-.083a.31.31 0 0 1-.041.206zm-5.247-1.239l.041-.041-.083-.083-.083-.041v.041a.186.186 0 0 0 .124.124zm.785.868c.041 0 .124-.083.207-.207a.771.771 0 0 0 .207-.413l.041-.041h-.044c-.041 0-.083.083-.207.248-.207.289-.289.372-.289.413zm-.909-.537c.083 0 .124-.083.124-.165v-.083l-.041.041a.152.152 0 0 1-.124.041l-.083-.041-.083.041-.124.165h.041a.152.152 0 0 0 .124-.041l.083-.083.041.041c0 .083 0 .083.041.083zm-.744.207c.041 0 .124-.083.124-.207l.041-.124-.041-.083-.083.041-.124.372zm.413.041c.041 0 .083 0 .083-.041l.041-.041-.083-.041c-.083 0-.124 0-.124.041v.041l.041.041zm5.495 1.735h-.044v-.041c0-.041 0-.083.041-.083l.041.083zm-6.362-.372a.089.089 0 0 0 .083-.083v-.041l-.083-.041c-.041.041-.083.083-.083.124s0 .041.041.041zm-.207 0l.041-.083a.089.089 0 0 0-.083-.083c-.041 0-.041.041-.041.083zm-.248-.041c.041 0 .041 0 .041-.041l-.083-.124h-.041zm.083 1.9l.372-.5a2.839 2.839 0 0 0 .413-.744v-.041a.181.181 0 0 0-.041-.124l-.124.083-.041.041-.124-.041-.083-.124.083-.165-.124.041a.277.277 0 0 0-.165.289c0 .041 0 .083.041.083s.083-.041.124-.083l.041-.041.041.041v.083a1.49 1.49 0 0 1-.289.785l-.124.248-.041.165zm6.321-.041v-.124c0-.041 0-.083.041-.083v.124zm-6.569-.868c.041 0 .124-.083.207-.207l.083-.165h-.083a.582.582 0 0 0-.248.33zm1.487.165c.041-.041.041-.083.041-.165 0-.041 0-.041-.041-.041l-.041.165zm4.958 1.322v-.165l.083-.165-.041.289zm-6.817-1.611c.041 0 .083-.041.124-.083l.041-.041-.041-.041h-.041a.184.184 0 0 0-.165.124l.041.041zm1.818.785c.041 0 .083-.041.124-.083v-.083l-.083.083zm4.875 1.2l-.041-.041.124-.124c.041 0 .041.041.041.083-.041.041-.083.083-.124.083zm-.124.413v-.083c0-.041.041-.041.083-.041l.041.041-.041.041zm-7.065-1.446l.041-.083c0-.041 0-.083-.041-.083s-.083 0-.083.083zm1.653.33c.041 0 .041-.041.041-.083h-.041l-.041.041v.041zm7.974 2.107l.083-.041-.041-.083a.04.04 0 0 0-.041.041v.083zm-9.915.124a2.981 2.981 0 0 0 .248-.413 3.806 3.806 0 0 1 .372-.537l.124-.248v-.041c0-.041 0-.041.041-.041a2.323 2.323 0 0 0 .413-.909v-.041c-.041 0-.124.124-.248.331l-.124.289a1.023 1.023 0 0 1-.165.248q-.062 0-.124.124a.681.681 0 0 1-.207.372 3.767 3.767 0 0 0-.33.826v.041zm.041-2.148l.124-.165-.041-.083a.04.04 0 0 0-.041-.041.181.181 0 0 0-.041.124v.165zm.454-.041c.041 0 .083 0 .083-.041l-.083-.041h-.041zm-.207.5v-.041a.04.04 0 0 0-.041-.041l-.083.041zm6.941 1.653h-.035v-.048l.041-.083.041.041s-.004.087-.045.087zm-7.478-1.487c.041 0 .041-.041.083-.165v-.165l-.083.041-.083.207c.044.079.044.079.085.079zm1.694.454l.041-.041c.083-.041.083-.083.083-.124h-.083a.089.089 0 0 0-.083.083v.041c0 .041 0 .041.041.041zm-2.066-.041c.041 0 .083 0 .083-.041l-.041-.124c-.083 0-.124.041-.124.083a.089.089 0 0 0 .083.083zm7.478 2.438l-.041-.041.041-.041a.152.152 0 0 1 .124-.041l-.041.083zm-7.85-1.653l.207-.124-.083-.041h-.083l-.083.041c0 .083 0 .124.041.124zm1.777.413a.152.152 0 0 0 .124-.041v-.083l-.083.041zm-1.9-.124a.089.089 0 0 0 .083-.083l-.083-.165-.041.124c.001.076.001.121.042.121zm.454 1.281l.124-.165.207-.413a.348.348 0 0 1 .165-.289.275.275 0 0 0 .165-.207v-.041c0-.041 0-.041-.041-.041h-.041c-.041 0-.124.083-.207.207l-.289.413a.923.923 0 0 0-.124.413c0 .083 0 .124.041.124zm1.115-.95l.041-.041-.041-.083c-.041 0-.041.041-.041.083v.041zm.248.248l.041-.083v-.124c-.041 0-.041.041-.041.083zm8.8 2.024v-.124c-.041 0-.041 0-.041.041v.041zm-9.048-1.818c.041 0 .083-.041.124-.083 0-.041 0-.083-.041-.083l-.124.124zm13.964 3.14l.041-.041a.04.04 0 0 0-.041-.041l-.083.041zm-15.865-3.636c.041 0 .041-.041.041-.083h-.041l-.041.083zm15.162 3.677l.207-.083-.083-.041-.413.041zm-14.667-3.181c.083 0 .124-.041.124-.083a.083.083 0 0 0-.165 0v.083zm10.329 2.479c.041 0 .083-.083.124-.124 0-.083-.041-.124-.083-.124h-.041l-.083.041-.041.124a.089.089 0 0 0 .083.083zm4.5.992l.083-.041.041-.083a.152.152 0 0 0-.124.041zm-.62.041l.083-.041-.083-.041h-.041zm1.363.454l-.041-.041.083-.041.041.041c.007.042.007.042-.076.042zm-15.989-3.553l.041-.083-.041-.041c-.041 0-.041 0-.041.041.005.08.005.08.049.08zm1.446.413c.041 0 .041-.083.041-.124v-.041c-.041 0-.041 0-.041.041zM804.213 294h-.041a.04.04 0 0 1-.041-.041l.041-.041.083.041c0 .041 0 .041-.041.041zm-1.033-.041v-.165a.089.089 0 0 0-.083-.083h-.207c-.124.041-.207.083-.207.124 0 .083.289.124.413.124zm-13.014-2.892c.041 0 .041 0 .041-.041v-.083a.152.152 0 0 0-.124.041c0 .041 0 .083.041.083zm13.345 3.1l.165-.041.041-.041-.165-.041c-.041 0-.124 0-.124.041a.089.089 0 0 0 .083.083zm-1.2-.372v-.041h-.124l.083.041zm1.983.578l-.165-.083.206-.041.207.041a.041.041 0 0 1 .041.041c-.041.041-.165.041-.289.041zm-7.56-1.735l.124-.041c0-.041-.041-.041-.124-.083-.041 0-.124.041-.124.083s.042.036.125.036zm5 1.2a.152.152 0 0 0 .041-.124h-.041l-.041.041c-.001.034-.001.076.041.076zm-13.262-1.487c.083 0 .124-.083.165-.207a.891.891 0 0 1 .165-.289l.289-.5.165-.413-.041-.083a.132.132 0 0 0-.124.124l-.248.413a.91.91 0 0 0-.248.5.4.4 0 0 1-.083.289q-.124.062-.124.124zm13.758 1.694a.089.089 0 0 0 .083-.083v-.083c-.041 0-.083.041-.124.083l-.041.041zm-1.239-.124a.249.249 0 0 0 .165-.041v-.041c0-.041 0-.041-.041-.041h-.041l-.083.041-.041.041zm-12.89-2.892c.083 0 .165-.041.165-.124v-.083a.04.04 0 0 0-.041.041l-.165.083zm14.006 3.181s-.041-.083-.083-.083a.041.041 0 0 0-.083 0 .089.089 0 0 0 .083.083zm-12.27-2.727a.152.152 0 0 0 .041-.124l-.083.041c0 .083.041.083.041.083zm4.875 1.033h-.248l.041-.041.083-.041.083.041zm-1.2.041c-.041 0-.083 0-.083-.041l.124-.041h.083v.041c0 .034-.083.034-.124.034zm9.792 2.314h-.083l.041-.041a.152.152 0 0 1 .124-.041h.041c0 .041-.041.083-.124.083zm-15-3.388l.083-.041a.04.04 0 0 0-.041-.041h-.083zm-.62 0l.124-.041v-.041l-.041-.083a.089.089 0 0 0-.083.083v.083zm14.047 3.14l-.165-.041.041-.041h.083zm-9.213-1.983h-.083l.041-.083h.165c0 .041-.041.041-.124.083zm-2.975-.578l.041-.083v-.124l-.041.083zm11.4 2.685l.207-.041.083-.041v-.041h-.165a.5.5 0 0 0-.207.041v.041c0 .041 0 .041.083.041zm-8.8-2.066c-.083-.041-.124-.041-.124-.083l.206-.041.041.041c0 .041-.083.083-.124.083zm7.6 1.983l.124-.124-.041-.041c-.041 0-.083.041-.124.083 0 .041 0 .083.041.083zm.331.041v-.041h-.124l.083.041zm-8.924-1.942c.083 0 .083 0 .083-.041l-.041-.041h-.083zm9.916 2.4h-.041v-.041c0-.041 0-.083.041-.083zm-13.3-2.727l.083-.041.041-.041-.083-.041c-.041 0-.083 0-.083.041s0 .083.041.083zm.537.248v-.083h-.041v.083zm8.222 2.024c.083 0 .124 0 .124-.041s-.041-.041-.083-.083l-.207.041c.004.032.041.032.169.075zm-.785-.165l.041-.041a.04.04 0 0 0-.041-.041l-.083.041zm-.206 0l.041-.083-.041-.041a.041.041 0 0 0-.041.041c.007.073.007.073.044.073zm.578.165l.083-.041-.083-.041a.152.152 0 0 0-.124.041l-.041.041zm.289.7v-.041a.152.152 0 0 0-.124-.041c-.165 0-.207 0-.207.041l.083.041zm-1.487.041l.086-.049-.041-.041a.613.613 0 0 0-.248.041l-.083.041zm-.62.041c.124 0 .248 0 .248-.041l-.248-.083c-.124 0-.207 0-.248.041zm-1.322.289v-.041a.04.04 0 0 0-.041-.041l-.083.041.083.041zm3.223 1.033v-.124a.181.181 0 0 1 .041-.124zm-8.222-1.322c.041 0 .083 0 .083-.041v-.049a.089.089 0 0 0-.083-.083l-.083-.041c-.083 0-.124.041-.124.083s.041.083.124.124zm8.227 3.01l.041-.083-.041-.041c-.041 0-.041 0-.041.041v.041zm-9.957-1.653a.528.528 0 0 0 .207-.289.417.417 0 0 0 .083-.207l-.124.041a.55.55 0 0 0-.248.372.089.089 0 0 0 .083.083zm-.868-.207c.041 0 .041 0 .041-.041v-.041c0-.041 0-.041.041-.041.083 0 .124-.041.124-.083a.041.041 0 0 0-.041-.041l-.083.041-.165.124a.089.089 0 0 0 .083.083zm-.248 2.6l.083-.041c.083 0 .165-.165.165-.289l.248-.62.331-.661.289-.661-.041-.041c-.083 0-.207.165-.207.289l-.537 1.239-.206.289-.041.124.083.041zm1.529-1.611c.041 0 .124-.083.165-.124l.041-.124a.152.152 0 0 0-.124.041c-.083.041-.165.124-.165.165s0 .041.083.041zm-2.107.95v-.124c-.041 0-.041 0-.041.041v.041zm1.2 1.4c.041 0 .083 0 .083-.041a.249.249 0 0 0-.041-.165h-.041c-.041 0-.041 0-.041.083v.041c0 .041 0 .083.041.083zm-1.033.207c.041 0 .041-.041.083-.083a.282.282 0 0 0 .124-.207v-.083h-.041c-.041 0-.124.124-.124.248zm-.165.537l.124-.083v-.165h-.041a.089.089 0 0 0-.083.083zm.62.289v-.041h-.124l.083.041zm-.744 0a.152.152 0 0 0 .041-.124l-.083.041zm-.207.454l.041-.041a.443.443 0 0 0 .083-.248l-.041-.041zm-.083.331l.041-.083-.041-.083h-.041c-.041 0-.041 0-.041.041v.041c.041.041.041.083.083.083zm-.248.454q.062 0 .124-.124v-.165q-.062 0-.124.124l-.041.124zm.744.7v-.124c-.041 0-.041 0-.041.041v.041zm-.992.041l.083-.041-.041-.33c-.041 0-.041.041-.083.124 0 .134 0 .216.038.255zm.7.867l.041-.041-.124-.124v.041c.042.094.042.135.082.135z" class="cls-1" transform="translate(-780.622 -271.521)"/>
        </g>
        <g id="SvgjsG13660" transform="translate(113.134 161.224)">
            <path id="패스_6171" d="M122.856 2520.427c.181.026.13.415-.026.415h-3.23c-.168 0-.194-.388-.039-.415.492-.078.985-.272.505-1.4l-.194-.453c-.117-.3-.4-.311-.816-.311h-2.695c-.389 0-.674.013-.79.311l-.181.453c-.479 1.153.013 1.309.661 1.4.155.026.13.415-.039.415h-2.734c-.168 0-.207-.388-.039-.415.544-.078.855-.285 1.334-1.4l2.189-4.988a5.612 5.612 0 0 0 .661-2.2 1.878 1.878 0 0 1 .959-.194l3.161 7.372c.479 1.127.79 1.334 1.309 1.412zm-3.8-2.824c.194 0 .415-.026.337-.194l-1.658-3.939-1.658 3.939c-.078.168.13.194.324.194zm10.087 6.024c-.143 0-.285-.4-.181-.414.57-.065 1.2-.764 1.2-2.293v-7.605c0-.907-.531-1.088-1.088-1.166-.1-.013-.026-.376.078-.376h3.356c.1 0 .181.363.078.376-.557.077-1.075.259-1.075 1.166v7.605a3.148 3.148 0 0 1-2.371 2.708zm14.621-2.578a4.541 4.541 0 0 1-4.651-4.7 4.594 4.594 0 0 1 4.677-4.781 4.53 4.53 0 0 1 4.651 4.69 4.59 4.59 0 0 1-4.674 4.791zm.479-.79c1.192 0 2.863-.764 2.863-3.329 0-2.682-1.84-4.573-3.783-4.573-1.2 0-2.863.764-2.863 3.317.004 2.706 1.83 4.585 3.787 4.585zm15.515.79a4.541 4.541 0 0 1-4.651-4.7 4.594 4.594 0 0 1 4.677-4.781 4.53 4.53 0 0 1 4.651 4.69 4.59 4.59 0 0 1-4.673 4.791zm.479-.79c1.192 0 2.863-.764 2.863-3.329 0-2.682-1.84-4.573-3.783-4.573-1.2 0-2.863.764-2.863 3.317.004 2.706 1.831 4.585 3.787 4.585z" class="cls-1" transform="translate(-113.134 -2511.566)"/>
        </g>
    </g>
</svg>
