<svg xmlns="http://www.w3.org/2000/svg" width="114.054" height="37.838" viewBox="0 0 114.054 37.838">
    <g data-name="그룹 5085">
        <path data-name="패스 6166" d="M0 0h27.787v37.838H0zm.788.788V37.05H27V.788z" style="fill:#fff"/>
        <path data-name="패스 6167" d="m5.664 314.524-.431-.144a.927.927 0 0 1-.395-.251.864.864 0 0 0-.287-.215.41.41 0 0 1-.251-.287l-.144-.359c-.036-.036-.036-.108-.036-.215a2.156 2.156 0 0 1 .072-.574 18.092 18.092 0 0 1 .646-2.225l.323-.933c.215-.61.682-1.723 1.005-2.477l.287-.682a5.639 5.639 0 0 1 .359-.826c.144-.359.359-.754.431-.969.036-.144.108-.287.179-.287.036 0 .036 0 .036-.036l-.036-.072-.072-.072-.251.072-.431-.072c-.5-.072-.969-.323-.969-.5v-.036c0-.072 0-.108-.036-.108a1.094 1.094 0 0 1-.179-.323l-.251-.467a1.283 1.283 0 0 1-.144-.682c0-.323.072-.61.179-.61h.036l.287-.072a.59.59 0 0 1 .323-.072h.144l1.436-.072.179-.036.179.036a2.575 2.575 0 0 0 .467-.036l.467-.072c.179-.036.215-.108.646-.9l.395-.79a2.7 2.7 0 0 0 .287-.5c.359-.682 1.364-2.477 1.615-2.836l.179-.323a8.36 8.36 0 0 1 1.113-1.723c.036 0 .072 0 .072-.036a2.7 2.7 0 0 1 .467-.9l.108-.215.395-.646a3.107 3.107 0 0 0 .395-.682l.144-.287c.108-.108.359-.5.61-.861a12.63 12.63 0 0 0 1.579-2.477.192.192 0 0 1 .108-.144 3.017 3.017 0 0 0 .431-.467l.538-.682.287-.431h.036a.077.077 0 0 0 .072-.072c.036-.036.215-.323.467-.61a3.023 3.023 0 0 0 .467-.718c.036-.179.395-.574.5-.574h.072c.072 0 .179-.179.179-.287a.324.324 0 0 1 .215-.215h.072a.192.192 0 0 0 .144-.108c.108-.072.144-.144.144-.179h-.108c0-.036.144-.144.467-.431.395-.323.646-.467.826-.467h.036a1.366 1.366 0 0 1 .574.395c.036.036.072.108.144.108a4.236 4.236 0 0 1 1.113 1.22 1.729 1.729 0 0 1 .467 1.184 9.745 9.745 0 0 1 .036 1.005c-.036.5-.431 2.979-.646 3.841l-1.687 7.143c-.215.969-.5 2.082-.574 2.477a2.629 2.629 0 0 0-.144.646.1.1 0 0 0 .108.108l.108.036-.108.036c-.072 0-.108.072-.144.108 0 .072.215.108.359.108.108 0 .179 0 .215-.036l.144-.036a.216.216 0 0 1 .144.036l.147.032.251-.108.215.072.179.036v-.036l.036-.072.072.072.108.036.144-.036.215.072.144-.072a1.083 1.083 0 0 1 .574.179.732.732 0 0 0 .395.072h.251a2.117 2.117 0 0 1 .718.072l-.036.036a.16.16 0 0 0-.144.108v.036c0 .036-.036.072-.108.072s-.179.036-.179.072l.036.072.215-.036c.179 0 .359.036.359.108a5.2 5.2 0 0 1-.969.108h-.108a.177.177 0 0 1-.108-.036l-.251.072-.144.108.215.036.179-.036.036.108c0 .072.036.144.072.144l.072.036c0 .036-.072.072-.144.072l-.469-.067-.179.036L23.4 302l-.574.072-.287-.036-.287.036-.144.036c-.036 0-.072-.036-.108-.072l-.072-.072-.036.036c-.036.036-.072.036-.144.036h-.072c-.108 0-.179 0-.215.036l-.072.036-.144-.072v.108l-.215-.072-.144.036-.108.072.5.215c.036 0 .036-.036.036-.072s.036-.072.108-.072l.036.072v.036l.036.072a.274.274 0 0 0 .179-.072c0-.036.144-.072.251-.108.144 0 .215 0 .215.036v.036c0 .072.036.108.215.108h.323a1.519 1.519 0 0 0 .574-.072c0-.036.179-.072.359-.072a1.5 1.5 0 0 1 .754.144v.036c0 .036-.072.072-.179.072h-.108l-.036-.036.108-.072-.431-.036a1.048 1.048 0 0 0-.323.072 1.653 1.653 0 0 1-.718.108h-.969l-.215.036-.144-.036-.144.072a.477.477 0 0 1-.251.108h-.108c-.179 0-.215.108-.287.5l-.179 1.149c-.036.359-.108.9-.108 1.149l-.108 1.507-.072.861a24.208 24.208 0 0 0-.179 2.979l.036 1.831c0 .251-.036.431-.108.431h-.036l-.287.036-.179.072-.072-.036c-.072-.036-.108-.036-.108-.072-.036 0-.036-.036-.036-.072v-.072l-.036-.072a.077.077 0 0 0-.072.072h-.036l-.072-.108a.578.578 0 0 0-.395-.287 1.481 1.481 0 0 1-.969-1.292v-.072c0-.215 0-.323-.108-.395l-.072-.144.036-.144-.036-.215a1.4 1.4 0 0 1-.072-.538v-.861a.852.852 0 0 1 .108-.538c.072-.036.072-.072.072-.144l-.072-.431.036-.144-.036-.036c-.036 0-.036-.036-.036-.072 0-.108.072-.251.108-.251a.077.077 0 0 0 .072-.072l-.108-.359a.187.187 0 0 1 .072-.144 1.843 1.843 0 0 0 .072-.574c0-.144 0-.251-.036-.287s-.036-.108-.036-.215c0-.144.036-.323.072-.323a.115.115 0 0 0 .108-.108v-.072l-.144.108-.036-.036.144-.395-.072-.179.072-.036c.072-.036.108-.179.144-.5l.036-.323-.036-.144v-.251c0-.108-.036-.108-.144-.18l-.108-.036a.077.077 0 0 0-.072.072c-.036.072-.323.108-.754.108a10.14 10.14 0 0 0-1.149.036l-1.041.036a3.143 3.143 0 0 1-.718-.072l-.323-.036c-.179 0-.323.036-.323.108-.036.036-.072.036-.144.036h-.431l-.9.108c-.144 0-.215-.036-.215-.072l-.144-.036a1.388 1.388 0 0 0-.61.144.269.269 0 0 1-.179.036h-.072a.385.385 0 0 0-.215.072l-.287.072c-.072 0-.108.036-.144.144v.036c0 .072.036.108.072.108s.108-.072.144-.144l.072-.108h.036l-.036.144c-.036.108-.072.215-.144.251a.443.443 0 0 0-.144.287c0 .036 0 .072.036.072s.036.036.036.072a1 1 0 0 1-.251.467c-.072.108-.144.179-.179.179l-.072.036a.9.9 0 0 0-.072.359.29.29 0 0 1-.251.323h-.102a.1.1 0 0 0-.108.108v.036c0 .072.036.108.144.108.072 0 .108.036.108.072a.371.371 0 0 1-.179.251.268.268 0 0 0-.108.108v.072l-.072.323-.861 2.046a1.924 1.924 0 0 0-.179.395l-.215.574c-.072.215-.144.323-.179.323H7.28c-.036 0-.072.072-.072.144l.036.144-.036.359c-.072.144-.108.359-.144.431-.036.179-.467 1.579-.538 1.723l-.179.5c-.072.215-.108.323-.179.323l-.072-.036-.072.108a.077.077 0 0 1-.072.072h-.036c-.036 0-.108.036-.144.144-.036.072-.036.144-.108.144zm15.542-28.858.072-.036.036-.036-.036-.036a.132.132 0 0 0-.108.036c0 .036 0 .072.036.072zm-.215.215a.077.077 0 0 0 .072-.072c0-.036 0-.072-.036-.072h-.036a.186.186 0 0 0-.144.072c0 .036.036.072.108.072h.036zm-1.256-.287a.132.132 0 0 0 .036-.108l-.072.036c.001.072.001.072.036.072zm1.364.467.144-.072c.036-.036.072-.036.072-.072l-.108.036c-.108.036-.179.036-.179.072zm-1.723-.179c.072 0 .144 0 .144-.036l.036-.036-.036-.072a.216.216 0 0 0-.144.036l-.072.072zm-7.322 14.932.287-.036.79-.036-.251-.144.179-.036a.556.556 0 0 1 .287.072h.072c.072 0 .108 0 .144-.036a.269.269 0 0 1 .179-.036c.036 0 .108 0 .108.072 0 .036 0 .108.036.108a13.6 13.6 0 0 0 1.4-.072h.754l1.184-.036c.215 0 .574-.036.574-.108 0-.036.108-.036.215-.036.287 0 .323-.036.359-.431v-.251c-.036 0-.036.036-.072.144l-.036.108-.036-.036.036-.287c.036-.179.072-.287.108-.287l.036.179.072-.215a4.337 4.337 0 0 0 .215-1.22c0-.108 0-.215-.036-.215l-.036-.072h.072c.072 0 .108-.072.144-.179 0-.108 0-.179-.036-.215-.036 0-.072-.072-.072-.144s.036-.144.072-.144a.16.16 0 0 0 .144-.108v-.072h-.036c-.072 0-.072-.036-.072-.072l.072-.072a28.228 28.228 0 0 0 .969-3.984v-.036a.268.268 0 0 0-.108.108l-.036.036.036-.108c0-.108.036-.179.072-.179l.072.036.072-.072v-.036l-.072-.036-.036-.072.036-.144.072-.108.036.179.036-.072a17.027 17.027 0 0 0 .574-2.4l-.033-.113h.036c.108 0 .251-.431.251-.682v-.072a1.585 1.585 0 0 1 .179-.682 1.351 1.351 0 0 0 .144-.5c0-.036 0-.072-.036-.072H21.1l.072-.144-.108-.072.036-.036a.385.385 0 0 0 .072-.215l.036-.144h.036c.036 0 .108-.108.144-.215v-.251c-.036 0-.072 0-.072-.072l.036-.287c0-.144 0-.215-.036-.215s-.144.108-.287.287c-.144.215-.287.323-.323.323l-.072-.036c-.036 0-.036.036-.036.108a.132.132 0 0 0 .036.108c.072.036.072.072.072.108H20.6q-.054 0-.108.108c0 .036-.108.144-.251.215-.072.036-.108.036-.108.072h.108l-.072.144.036.108h-.108c-.072 0-.072.036-.144.179 0 .036-.072.108-.144.144s-.144.072-.144.108a.355.355 0 0 1-.251.18.519.519 0 0 0-.251.359c-.036.108-.072.179-.108.179h-.036c-.036 0-.072.036-.144.108-.036.072-.108.144-.144.144l-.108-.036-.036.036.072.144a1.05 1.05 0 0 1-.215.359c-.144.179-.215.287-.251.287l-.072-.144-.072.072-.108-.072-.072.036c0 .036.072.108.144.144.036.036.072.072.072.108a.786.786 0 0 0-.108.287c-.036.144-.108.215-.179.215a.16.16 0 0 0-.144.108c0 .072 0 .108.036.108l.144-.072-.072.144-.072.036h-.072c-.072 0-.215.18-.323.5a1.089 1.089 0 0 1-.179.359l-.179.323a.772.772 0 0 1-.323.431c-.395.251-.538.359-.538.395h.072v.108c0 .072.036.144.072.144l.072.036h-.072c-.072 0-.072.072-.072.144v.072l-.108-.036-.108.072c-.108.072-.144.108-.144.179l.108.18q0 .054-.108.108c-.036.036-.072.072-.072.108l-.108.072c-.072.036-.108.036-.108.179v.144c0 .108 0 .179-.036.179h-.036c-.072 0-.144.108-.179.215a.619.619 0 0 1-.215.215c-.036.036-.072.072-.072.108v.036l-.144.287.036.108.072.036h-.072a.546.546 0 0 0-.215.144 1.919 1.919 0 0 0-.215.467c-.072.144-.144.215-.179.215s-.036 0-.036.036v.036a.328.328 0 0 1-.108.179.223.223 0 0 0-.144.215c0 .036 0 .072-.036.072-.072 0-.072.036-.072.144s-.036.144-.144.144h-.144c-.108 0-.215 0-.215.072v.036c0 .036.036.072.108.072.036 0 .108-.036.108-.072l.072-.036.036.072c0 .108-.108.287-.179.287h-.036c-.072 0-.144.108-.179.287a8.042 8.042 0 0 1-.682 1.364l-.179.359c0 .108-.036.179-.108.179l-.108.179c0 .072-.036.144-.072.144h-.072v.036l-.144.467v.036zm7.825-14.357c.036 0 .072-.036.108-.144 0-.108 0-.144-.036-.144l-.072.036c-.036.036-.072.072-.072.108v.036c-.001.07.035.106.071.106zm-.179.215c.036-.036.072-.072.072-.108v-.036H19.7c-.036.036-.072.072-.072.108s-.001.035.072.035zm.395.251.072-.072.036-.072h-.036c-.036 0-.072.036-.108.072-.001.035-.001.071.034.071zm-.754.036.108-.036c.108-.072.144-.108.144-.144h-.036q-.054 0-.108.108zm.969.359.072-.036.036-.036-.072-.036c-.036 0-.072 0-.072.036s-.001.071.035.071zm-1.256.108.144-.108.072-.072-.072-.036a.192.192 0 0 0-.144.108zm.395.323a.132.132 0 0 0 .108-.036c0-.036 0-.072-.036-.072l-.072.036-.036.036zm.395.072a.132.132 0 0 0 .036-.108l-.072.036c0 .072 0 .072.036.072zm-1.4.323c.108 0 .179-.072.323-.287l.179-.287c0-.036 0-.036-.036-.036l-.072.036c-.072.036-.144.072-.144.144a.419.419 0 0 1-.215.215c-.108.108-.144.144-.144.179zm1.362-.144c.036 0 .036-.036.036-.072h-.036l-.036.036V288zm-2.046-.323v-.108c-.036 0-.036 0-.036.036v.072zm3.159.861h-.036v-.038c0-.036 0-.072.036-.072l.036.072zm-1.938-.072c.036 0 .072-.036.072-.108a.611.611 0 0 0-.036-.251v-.072c-.036.036-.036.072-.036.179l-.036.18zm-2.082-.79v-.108c-.036 0-.036.036-.036.072v.036zm.933 1.364.144-.036a.673.673 0 0 0 .215-.251.305.305 0 0 1 .108-.179.366.366 0 0 0 .179-.287c0-.036 0-.072-.036-.072a.546.546 0 0 0-.215.144l-.251.359a1 1 0 0 0-.176.282c0 .04 0 .04.032.04zm1.005-.144c.036 0 .036-.072.036-.108v-.036h-.036l-.036.144zm-1.436-.215v-.072h-.036v.072zm-2.943 5.563a.422.422 0 0 0 .215-.179l.144-.251a12.97 12.97 0 0 1 .933-1.436c.072-.144.718-1.149.79-1.328a5.5 5.5 0 0 1 .467-.682 6.5 6.5 0 0 0 .754-1.22c-.036 0-.108.072-.144.144s-.108.144-.144.144h-.036v.036a.624.624 0 0 1-.108.251 2.777 2.777 0 0 0-.574.79.238.238 0 0 1-.144.18.358.358 0 0 0-.144.179c-.036.179-.072.287-.144.287h-.108l.036.072.072.072-.072.072a.28.28 0 0 0-.144.144.942.942 0 0 1-.215.287 1.273 1.273 0 0 0-.287.431.786.786 0 0 1-.215.359.642.642 0 0 0-.179.251.51.51 0 0 1-.072.215.546.546 0 0 0-.144.215l-.179.251c-.036.072-.108.144-.108.179v.036a.328.328 0 0 1-.108.18.951.951 0 0 0-.179.215v.036c0 .072 0 .072.036.072zm2.082-4.917a.3.3 0 0 0 .215-.144l.072-.179h-.036c-.072 0-.251.179-.287.251v.036c-.004.036-.004.036.036.036zm-.287-.144a.318.318 0 0 0 .179-.144c0-.036 0-.036-.036-.036l-.072.036a.192.192 0 0 0-.108.144zm1.866.359.036-.036v-.036l-.072.036a.035.035 0 0 0 .036.036zm.144.179v-.108c-.036 0-.036 0-.036.036v.072zm2.154.79v-.144c.036-.072.036-.108.072-.108a.665.665 0 0 1-.073.252zm-4.128-.754.072-.036-.036-.072c-.036 0-.036 0-.036.036v.072zm1.579.5v-.108c-.036 0-.036 0-.036.036v.036c0 .039 0 .039.036.039zm2.225 1.4.036-.323c.072-.215.144-.395.179-.395l.036.036-.072.323c-.108.251-.144.359-.179.359zm-4.164-1.22c.036 0 .072-.036.108-.072a.192.192 0 0 0 .108-.144h-.036a.132.132 0 0 0-.108.036l-.036.036v-.036c0-.072 0-.072-.036-.072s-.036.072-.036.144zm-.215.072.072-.072.036-.072h-.036l-.108.108c.001.038.001.038.036.038zm.323.215c.036 0 .036-.072.036-.072a.035.035 0 0 0-.036-.036l-.036.072v.036zm-.431.036c.036 0 .036-.072.036-.108a.035.035 0 0 0-.036-.036l-.036.072c.001.039.001.075.037.075zm1.436.646a.186.186 0 0 0 .144-.072.354.354 0 0 0 .072-.215.132.132 0 0 0-.108.036c-.072.072-.144.144-.144.179zm.431-.072h-.036v-.034c0-.072.036-.072.036-.072.036 0 .036 0 .036.036 0 .001 0 .073-.036.073zm-1.974.251c.036 0 .036-.072.072-.144v-.108l-.072.036-.036.108zm-.179.215.036-.072v-.108l-.108.144.036.036h.036zm-.395-.072c.072 0 .072 0 .072-.036-.036 0-.036 0-.036-.036l-.072.036zm.323.538.072-.036.251-.215h-.108c-.108 0-.179.108-.215.215zm-.215-.287.036-.036c0-.036 0-.036-.036-.036H15zm1.292.323c0-.036-.036-.072-.072-.108h-.036v.036c.036.036.036.072.072.072zm.072.108a.132.132 0 0 0 .036-.108l-.072.036zm5.707 1.292c.036 0 .036-.036.036-.072l-.04-.03-.036.072a.035.035 0 0 0 .036.034zm-2.4-.359h-.036l.036-.108.036-.072a.269.269 0 0 1-.04.184zm-4.564-1.073.036-.036-.072-.072-.072-.036v.036a.162.162 0 0 0 .108.108zm.682.754c.036 0 .108-.072.179-.179a.67.67 0 0 0 .179-.359l.036-.036h-.036c-.036 0-.072.072-.179.215-.179.251-.251.323-.251.359zm-.79-.467c.072 0 .108-.072.108-.144v-.072l-.036.036a.132.132 0 0 1-.108.036l-.072-.036-.072.036-.108.144h.036a.132.132 0 0 0 .108-.036l.072-.072.036.036c.004.072.004.072.037.072zm-.646.179c.036 0 .108-.072.108-.179l.036-.108-.036-.072-.072.036-.108.323zm.359.036c.036 0 .072 0 .072-.036l.036-.036-.072-.036c-.072 0-.108 0-.108.036v.036l.036.036h.036zm4.774 1.508h-.036v-.036c0-.036 0-.072.036-.072l.036.072zm-5.528-.323a.077.077 0 0 0 .072-.072v-.036l-.072-.036c-.036.036-.072.072-.072.108s0 .036.036.036h.036zm-.179 0 .036-.072a.077.077 0 0 0-.072-.072c-.036 0-.036.036-.036.072zm-.215-.036c.036 0 .036 0 .036-.036l-.072-.108h-.036zm.072 1.651.323-.431a2.465 2.465 0 0 0 .359-.646v-.036a.157.157 0 0 0-.036-.108l-.108.072-.036.036-.108-.036-.072-.108.072-.144-.108.036a.24.24 0 0 0-.144.251c0 .036 0 .072.036.072s.072-.036.108-.072l.036-.036.036.036v.072a1.294 1.294 0 0 1-.251.682l-.108.215-.036.144zm5.492-.036v-.108c0-.036 0-.072.036-.072v.108zm-5.707-.754c.036 0 .108-.072.179-.179l.072-.144h-.072a.506.506 0 0 0-.215.287zm1.292.144c.036-.036.036-.072.036-.144 0-.036 0-.036-.036-.036l-.036.144zm4.307 1.149v-.144l.072-.144-.036.251zm-5.922-1.4c.036 0 .072-.036.108-.072l.036-.036-.036-.036H13.2a.16.16 0 0 0-.144.108l.036.036zm1.579.682c.036 0 .072-.036.108-.072v-.072l-.072.072zm4.235 1.041-.036-.036.108-.108c.036 0 .036.036.036.072-.036.036-.072.074-.108.074zm-.108.359v-.072c0-.036.036-.036.072-.036l.036.036-.036.036zM12.7 295.5l.036-.072c0-.036 0-.072-.036-.072s-.072 0-.072.072zm1.436.287c.036 0 .036-.036.036-.072h-.036l-.036.036v.036zm6.927 1.831.072-.036-.036-.072a.035.035 0 0 0-.036.036v.072zm-8.614.108a2.58 2.58 0 0 0 .215-.359 3.315 3.315 0 0 1 .323-.467l.108-.215v-.036c0-.036 0-.036.036-.036a2.019 2.019 0 0 0 .359-.79v-.036c-.036 0-.108.108-.215.287l-.108.251a.887.887 0 0 1-.144.215q-.054 0-.108.108a.592.592 0 0 1-.179.323 3.272 3.272 0 0 0-.287.718v.036zm.036-1.866.108-.144-.036-.072a.035.035 0 0 0-.036-.036.157.157 0 0 0-.036.108zm.395-.036c.036 0 .072 0 .072-.036l-.072-.036h-.036zm-.179.431v-.036a.035.035 0 0 0-.036-.036l-.072.036zm6.03 1.436h-.036v-.036l.036-.072.036.036s-.002.071-.037.071zm-6.5-1.292c.036 0 .036-.036.072-.144v-.144l-.072.036-.072.179c.041.074.041.074.074.074zm1.472.395.036-.036c.072-.036.072-.072.072-.108h-.071a.077.077 0 0 0-.072.072v.036c.001.035.001.035.032.035zm-1.795-.036c.036 0 .072 0 .072-.036l-.036-.108c-.072 0-.108.036-.108.072a.077.077 0 0 0 .072.072zm6.5 2.118-.036-.036.036-.036a.132.132 0 0 1 .108-.036l-.036.072zm-6.82-1.436.179-.108-.072-.036h-.072l-.072.036c0 .072 0 .108.036.108zm1.543.359a.132.132 0 0 0 .108-.036v-.072l-.072.036zm-1.651-.108a.077.077 0 0 0 .072-.072l-.072-.144-.036.108c-.001.071-.001.107.035.107zm.395 1.113.108-.144.179-.359a.3.3 0 0 1 .144-.251.238.238 0 0 0 .144-.179v-.036c0-.036 0-.036-.036-.036h-.036c-.036 0-.108.072-.179.179l-.251.359a.8.8 0 0 0-.108.359c0 .072 0 .108.036.108zm.969-.826.036-.036-.036-.072c-.036 0-.036.036-.036.072v.036zm.215.215.036-.072v-.108c-.036 0-.036.036-.036.072zm7.645 1.759v-.108c-.036 0-.036 0-.036.036v.036zm-7.861-1.579c.036 0 .072-.036.108-.072 0-.036 0-.072-.036-.072l-.108.108zm12.132 2.727.036-.036a.035.035 0 0 0-.036-.036l-.072.036zm-13.783-3.159c.036 0 .036-.036.036-.072h-.036l-.036.072zm13.173 3.194.179-.072-.072-.036-.359.036zm-12.742-2.764c.072 0 .108-.036.108-.072a.072.072 0 0 0-.144 0v.072zm8.973 2.154c.036 0 .072-.072.108-.108 0-.072-.036-.108-.072-.108H20.6l-.072.036-.036.108a.077.077 0 0 0 .072.072zm3.912.861.072-.036.036-.072a.132.132 0 0 0-.108.036zm-.538.036.072-.036-.072-.036h-.036zm1.184.395-.036-.036.072-.036.036.036c0 .037 0 .037-.072.037zm-13.891-3.087.036-.072-.036-.036c-.036 0-.036 0-.036.036.001.073.001.073.037.073zm1.256.359c.036 0 .036-.072.036-.108v-.036c-.036 0-.036 0-.036.036zm12.1 2.728h-.039a.035.035 0 0 1-.036-.036l.036-.036.072.036c0 .036 0 .036-.036.036zm-.9-.036v-.144a.077.077 0 0 0-.072-.072h-.179c-.108.036-.179.072-.179.108 0 .072.251.108.359.108zm-11.306-2.512c.036 0 .036 0 .036-.036v-.072a.132.132 0 0 0-.108.036c0 .036 0 .072.036.072zm11.593 2.692.144-.036.036-.036-.144-.036c-.036 0-.108 0-.108.036a.077.077 0 0 0 .072.072zm-1.041-.323v-.038h-.108l.072.036zm1.723.5-.144-.072.179-.036.179.036a.035.035 0 0 1 .036.036c-.038.039-.138.039-.25.039zm-6.568-1.507.108-.036c0-.036-.036-.036-.108-.072-.036 0-.108.036-.108.072s.036.038.107.038zm4.343 1.041a.132.132 0 0 0 .036-.108h-.036l-.036.036c-.001.038-.001.074.035.074zm-11.522-1.292c.072 0 .108-.072.144-.179a.77.77 0 0 1 .144-.251l.251-.431.144-.359-.036-.072a.115.115 0 0 0-.108.108l-.215.359a.79.79 0 0 0-.215.431.343.343 0 0 1-.072.251q-.108.054-.108.108zm11.952 1.472a.077.077 0 0 0 .072-.072v-.072c-.036 0-.072.036-.108.072l-.036.036zm-1.077-.108a.216.216 0 0 0 .144-.036v-.036c0-.036 0-.036-.036-.036h-.036l-.072.036-.036.036zm-11.2-2.513c.072 0 .144-.036.144-.108v-.072a.035.035 0 0 0-.036.036l-.144.072zM22.785 302s-.036-.072-.072-.072a.036.036 0 0 0-.072 0 .077.077 0 0 0 .072.072zm-10.66-2.369a.132.132 0 0 0 .036-.108l-.072.036c0 .072.036.072.036.072zm4.235.9h-.215l.036-.036.072-.036.072.036zm-1.041.036c-.036 0-.072 0-.072-.036l.108-.036h.072v.036c0 .03-.071.03-.107.03zm8.507 2.01h-.072l.036-.036a.132.132 0 0 1 .108-.036h.036c0 .036-.036.072-.108.072zM10.8 299.628l.072-.036a.035.035 0 0 0-.036-.036h-.072zm-.538 0 .108-.036v-.036l-.036-.072a.077.077 0 0 0-.072.072v.072zm12.2 2.728-.144-.036.036-.036h.072zm-8-1.723h-.072l.036-.072h.144c0 .036-.036.036-.108.072zm-2.584-.5.036-.072v-.108l-.036.072zm9.906 2.333.179-.036.072-.036v-.036h-.144a.436.436 0 0 0-.179.036v.036c-.003.034-.003.034.068.034zm-7.645-1.795c-.072-.036-.108-.036-.108-.072l.179-.036.036.036c0 .036-.072.072-.108.072zm6.6 1.723.108-.108-.036-.036c-.036 0-.072.036-.108.072 0 .036 0 .072.036.072zm.287.036v-.036h-.108l.072.036zm-7.753-1.687c.072 0 .072 0 .072-.036l-.036-.036h-.072zm8.614 2.082h-.036v-.036c0-.036 0-.072.036-.072zm-11.558-2.369.072-.036.036-.036-.072-.036c-.036 0-.072 0-.072.036s.002.07.038.07zm.467.215v-.071h-.036v.072zm7.143 1.759c.072 0 .108 0 .108-.036s-.036-.036-.072-.072l-.179.036c.004.034.036.034.144.07zm-.682-.144.036-.036a.035.035 0 0 0-.036-.036l-.072.036zm-.179 0 .036-.072-.036-.036a.035.035 0 0 0-.036.036c.001.07.001.07.036.07zm.5.144.072-.036-.072-.036a.132.132 0 0 0-.108.036l-.036.036zm.251.61V303a.132.132 0 0 0-.108-.036c-.144 0-.179 0-.179.036l.072.036h.215zm-1.292.036.072-.036-.033-.04a.533.533 0 0 0-.215.036l-.072.036zm-.537.034c.108 0 .215 0 .215-.036L16 303c-.108 0-.179 0-.215.036zm-1.149.251v-.036a.035.035 0 0 0-.036-.036l-.072.036.072.036zm2.8.9v-.108a.157.157 0 0 1 .036-.108zm-7.141-1.151c.036 0 .072 0 .072-.036v-.036a.077.077 0 0 0-.072-.072l-.072-.036c-.072 0-.108.036-.108.072s.036.072.108.108zm7.143 2.62.036-.072-.036-.036c-.036 0-.036 0-.036.036v.036zM9 304.294a.458.458 0 0 0 .179-.251.362.362 0 0 0 .072-.179l-.108.036a.478.478 0 0 0-.215.323.077.077 0 0 0 .072.071zm-.754-.179c.036 0 .036 0 .036-.036v-.036c0-.036 0-.036.036-.036.072 0 .108-.036.108-.072a.035.035 0 0 0-.036-.036l-.072.036-.144.108a.077.077 0 0 0 .075.072zm-.215 2.261.072-.036c.072 0 .144-.144.144-.251l.215-.538.287-.574L9 304.4l-.036-.036c-.072 0-.179.144-.179.251l-.467 1.077-.179.251-.036.108.072.036zm1.328-1.4c.036 0 .108-.072.144-.108l.036-.108a.132.132 0 0 0-.108.036c-.072.036-.144.108-.144.144s.003.036.074.036zm-1.831.826v-.108c-.036 0-.036 0-.036.036v.036zm1.041 1.22c.036 0 .072 0 .072-.036a.216.216 0 0 0-.036-.144h-.033c-.036 0-.036 0-.036.072v.036c0 .036 0 .072.036.072zm-.9.179c.036 0 .036-.036.072-.072a.245.245 0 0 0 .108-.179v-.072h-.031c-.036 0-.108.108-.108.215zm-.144.467.108-.072v-.144H7.6a.077.077 0 0 0-.072.072zm.538.251v-.036h-.101l.072.036zm-.646 0a.132.132 0 0 0 .036-.108l-.072.036zm-.179.395.036-.036a.385.385 0 0 0 .072-.215l-.036-.036zm-.072.287.036-.072-.036-.072h-.03c-.036 0-.036 0-.036.036v.036c.036.036.036.071.072.071zm-.209.399q.054 0 .108-.108v-.144q-.054 0-.108.108l-.036.108zm.646.61v-.11c-.036 0-.036 0-.036.036v.036zm-.861.036.072-.036-.036-.287c-.036 0-.036.036-.072.108-.001.104-.001.175.035.211zm.61.754.036-.036-.108-.108v.036c.036.068.036.108.071.108z" transform="translate(-.968 -279.533)" style="fill:#fff"/>
    </g>
    <path data-name="패스 6168" d="M30.774 197.057c.277.04.2.634-.04.634H25.8c-.258 0-.3-.594-.059-.634.753-.119 1.506-.416.773-2.139l-.3-.693c-.178-.456-.614-.475-1.248-.475h-4.12c-.594 0-1.03.02-1.208.475l-.277.693c-.733 1.763.02 2 1.01 2.139.238.04.2.634-.059.634h-4.18c-.258 0-.317-.594-.059-.634.832-.119 1.307-.436 2.04-2.139l3.348-7.627a8.581 8.581 0 0 0 1.01-3.368 2.872 2.872 0 0 1 1.466-.3l4.836 11.277c.733 1.723 1.208 2.04 2 2.159zm-5.8-4.319c.3 0 .634-.04.515-.3l-2.536-6.022-2.536 6.022c-.119.258.2.3.5.3zm15.423 9.212c-.218 0-.436-.614-.277-.634.872-.1 1.842-1.169 1.842-3.506v-11.629c0-1.387-.812-1.664-1.664-1.783-.158-.02-.04-.574.119-.574h5.131c.158 0 .277.555.119.574-.852.119-1.644.4-1.644 1.783v11.629c-.005 2-2.343 4.14-3.631 4.14zm22.356-3.942a6.944 6.944 0 0 1-7.112-7.191 7.025 7.025 0 0 1 7.151-7.31 6.927 6.927 0 0 1 7.112 7.171 7.019 7.019 0 0 1-7.155 7.33zm.733-1.208c1.822 0 4.378-1.169 4.378-5.091 0-4.1-2.813-6.993-5.784-6.993-1.842 0-4.378 1.169-4.378 5.071-.002 4.14 2.788 7.013 5.78 7.013zm23.714 1.208a6.944 6.944 0 0 1-7.112-7.191 7.025 7.025 0 0 1 7.151-7.31 6.927 6.927 0 0 1 7.112 7.171 7.019 7.019 0 0 1-7.151 7.33zm.733-1.208c1.822 0 4.378-1.169 4.378-5.091 0-4.1-2.813-6.993-5.784-6.993-1.842 0-4.378 1.169-4.378 5.071.004 4.14 2.797 7.013 5.789 7.013z" transform="translate(19.698 -173.81)" style="fill:#fff"/>
</svg>
