<svg xmlns="http://www.w3.org/2000/svg" width="37" height="37" viewBox="0 0 37 37">
    <g data-name="사각형 2786" style="stroke:#fff;fill:none">
        <path style="stroke:none" d="M0 0h37v37H0z"/>
        <path style="fill:none" d="M.5.5h36v36H.5z"/>
    </g>
    <path data-name="패스 6255" d="M13.376 10.212a.907.907 0 0 0-.4-.094.939.939 0 0 0-.586.205L8.566 13.4H5.473a.94.94 0 0 0-.937.937v4.687a.94.94 0 0 0 .937.937h3.093l3.82 3.076a.951.951 0 0 0 .586.205.907.907 0 0 0 .4-.094.937.937 0 0 0 .533-.844V11.061a.939.939 0 0 0-.529-.849z" transform="translate(2.746 2.333)" style="fill:#fff"/>
    <path data-name="패스 6256" d="M30.458 16.125a12.791 12.791 0 0 0-3.832-9.169.7.7 0 0 0-.99 1 11.385 11.385 0 0 1 3.41 8.167 11.409 11.409 0 0 1-3.41 8.167.7.7 0 0 0-.006 1 .687.687 0 0 0 .5.211.7.7 0 0 0 .492-.205 12.763 12.763 0 0 0 3.838-9.169z" transform="translate(-.737 2.894)" style="fill:#fff"/>
    <path data-name="패스 6257" d="M26.273 16.611a9.516 9.516 0 0 0-2.742-6.732.7.7 0 0 0-1 .99 8.133 8.133 0 0 1 2.338 5.748 8.133 8.133 0 0 1-2.338 5.748.706.706 0 0 0 .5 1.2.687.687 0 0 0 .5-.211 9.569 9.569 0 0 0 2.748-6.744z" transform="translate(-.22 2.408)" style="fill:#fff"/>
    <path data-name="패스 6258" d="M19.974 12.79a.7.7 0 1 0-1 .99 4.689 4.689 0 0 1 1.345 3.32 4.709 4.709 0 0 1-1.348 3.316.706.706 0 0 0 .5 1.2.687.687 0 0 0 .5-.211 6.081 6.081 0 0 0 1.752-4.3 6.068 6.068 0 0 0-1.749-4.315z" transform="translate(.373 1.922)" style="fill:#fff"/>
</svg>
