<svg xmlns="http://www.w3.org/2000/svg" width="37" height="37" viewBox="0 0 37 37">
    <g data-name="사각형 2786" style="stroke:#fff;fill:none">
        <path style="stroke:none" d="M0 0h37v37H0z"/>
        <path style="fill:none" d="M.5.5h36v36H.5z"/>
    </g>
    <g data-name="volume-off">
        <path data-name="패스 6259" d="M24.588 27.749a.83.83 0 0 1-.721-.41L10.5 4.624a.82.82 0 0 1 .3-1.131.839.839 0 0 1 1.142.3l13.366 22.714a.826.826 0 0 1-.721 1.242z" transform="translate(1.769 3.455)" style="fill:#fff"/>
        <g data-name="그룹 5257">
            <path data-name="패스 6260" d="M8.543 13.583H5.437a.936.936 0 0 0-.937.937v4.687a.94.94 0 0 0 .937.937h3.106l3.832 3.076a.955.955 0 0 0 .592.205.89.89 0 0 0 .4-.094.937.937 0 0 0 .533-.844v-7.269l-2.373-4.031z" transform="translate(2.75 2.153)" style="fill:#fff"/>
            <path data-name="패스 6261" d="M30.492 16.125a12.786 12.786 0 0 0-3.838-9.169.7.7 0 1 0-.99 1 11.373 11.373 0 0 1 3.422 8.167 11.4 11.4 0 0 1-2.443 7.077l.762 1.289a12.766 12.766 0 0 0 3.088-8.367z" transform="translate(-.744 2.892)" style="fill:#fff"/>
            <path data-name="패스 6262" d="M26.293 16.611a9.521 9.521 0 0 0-2.748-6.732.7.7 0 0 0-1 .99 8.114 8.114 0 0 1 2.344 5.748 8.187 8.187 0 0 1-.814 3.586l.832 1.412a9.614 9.614 0 0 0 1.386-5.004z" transform="translate(-.224 2.406)" style="fill:#fff"/>
            <path data-name="패스 6263" d="M21.762 17.1A6.076 6.076 0 0 0 20 12.8a.7.7 0 0 0-1-.006.857.857 0 0 0-.094.111l2.826 4.795c.018-.2.03-.4.03-.6z" transform="translate(.347 1.919)" style="fill:#fff"/>
        </g>
    </g>
</svg>
