<svg xmlns="http://www.w3.org/2000/svg" width="320" height="188.045" viewBox="0 0 320 188.045">
    <g>
        <path fill="#434343" d="M0 0H320V188.045H0z" transform="translate(-20 -486.5) translate(20 486.5)"/>
        <path d="M15.189 30.377H7.594A7.6 7.6 0 0 0 0 37.971v75.943a7.6 7.6 0 0 0 7.594 7.594h7.594a7.6 7.6 0 0 0 7.594-7.594V37.971a7.6 7.6 0 0 0-7.593-7.594zm98.726 7.594V18.333a7.6 7.6 0 0 0-2.224-5.371L100.949 2.224A7.6 7.6 0 0 0 95.579 0H37.971a7.6 7.6 0 0 0-7.594 7.594v106.32a7.6 7.6 0 0 0 7.594 7.594h75.943a7.6 7.6 0 0 0 7.594-7.594V45.566a7.6 7.6 0 0 0-7.594-7.595zm-45.566 64.552a3.8 3.8 0 0 1-3.8 3.8h-7.592a3.8 3.8 0 0 1-3.8-3.8v-7.594a3.8 3.8 0 0 1 3.8-3.8h7.594a3.8 3.8 0 0 1 3.8 3.8zm0-30.377a3.8 3.8 0 0 1-3.8 3.8h-7.592a3.8 3.8 0 0 1-3.8-3.8v-7.594a3.8 3.8 0 0 1 3.8-3.8h7.594a3.8 3.8 0 0 1 3.8 3.8zm30.377 30.377a3.8 3.8 0 0 1-3.8 3.8h-7.592a3.8 3.8 0 0 1-3.8-3.8v-7.594a3.8 3.8 0 0 1 3.8-3.8h7.594a3.8 3.8 0 0 1 3.8 3.8zm0-30.377a3.8 3.8 0 0 1-3.8 3.8h-7.592a3.8 3.8 0 0 1-3.8-3.8v-7.594a3.8 3.8 0 0 1 3.8-3.8h7.594a3.8 3.8 0 0 1 3.8 3.8zm3.8-26.58H41.769V11.391h49.362v7.594a3.8 3.8 0 0 0 3.8 3.8h7.594z" opacity="0.106" transform="translate(-20 -486.5) translate(20.629 553.036)"/>
    </g>
</svg>
