<svg xmlns="http://www.w3.org/2000/svg" width="237.001" height="218" viewBox="0 0 237.001 218">
    <g>
        <path fill="#b10f15" d="M0 0H237V218H0z" transform="translate(-185.999 -315) translate(186 315)"/>
        <g style="mix-blend-mode:multiply;isolation:isolate" opacity="0.189">
            <path fill="#6e0004" d="M-9186.095-170.738q-1.314-.783-2.6-1.613-9.023-5.84-16.758-11.854t-12.372-10.31l-4.47-4.3q-1.715-1.715-4.554-4.725t-9.892-11.854a172.988 172.988 0 0 1-12.2-17.272q-1.32-2.154-2.548-4.46v-45.753l14.234-14.234q2.405-2.064 3.606.686l16.673 31.28a4.5 4.5 0 0 1-.86 5.327l-7.561 7.561a8.563 8.563 0 0 0-2.408 5.33q0 5.153 5.327 13.232a113.1 113.1 0 0 0 10.484 13.755l5.327 5.495c1.606 1.6 3.663 3.582 6.192 5.929a103.971 103.971 0 0 0 12.456 9.278q8.673 5.76 13.662 5.757a7.488 7.488 0 0 0 5.5-2.234l8.941-8.937a3.775 3.775 0 0 1 5.148-.688l30.083 17.7a2.519 2.519 0 0 1 1.374 1.806 2.2 2.2 0 0 1-.688 1.976l-13.123 13.123z" transform="translate(-185.999 -315) translate(176.742 405.737) translate(9260.742 298)"/>
        </g>
    </g>
</svg>
