<svg xmlns="http://www.w3.org/2000/svg" width="320" height="188.045" viewBox="0 0 320 188.045">
    <g>
        <path fill="#b10f15" d="M0 0H320V188.045H0z" transform="translate(-20 -280.5) translate(20 280.5)"/>
        <g style="mix-blend-mode:multiply;isolation:isolate" opacity="0.189">
            <path fill="#6e0004" d="M6507.278-106.283q-1.314-.784-2.6-1.615-9.023-5.84-16.757-11.852t-12.374-10.311l-4.467-4.3q-1.717-1.717-4.554-4.726t-9.894-11.854a172.586 172.586 0 0 1-12.2-17.272q-1.319-2.153-2.547-4.459v-45.756l14.233-14.233q2.41-2.062 3.61.687L6476.4-200.7a4.5 4.5 0 0 1-.859 5.328l-7.562 7.562a8.555 8.555 0 0 0-2.406 5.328q0 5.157 5.327 13.233a112.96 112.96 0 0 0 10.484 13.754l5.328 5.495c1.6 1.6 3.662 3.582 6.192 5.929a103.535 103.535 0 0 0 12.455 9.28q8.675 5.76 13.662 5.758a7.483 7.483 0 0 0 5.5-2.235l8.941-8.936a3.777 3.777 0 0 1 5.151-.687l30.08 17.7a2.517 2.517 0 0 1 1.376 1.8 2.2 2.2 0 0 1-.689 1.977l-13.123 13.123z" transform="translate(-20 -280.5) translate(11.371 341.282) translate(-6432.629 233.545)"/>
        </g>
    </g>
</svg>
