<svg xmlns="http://www.w3.org/2000/svg" width="237.013" height="218" viewBox="0 0 237.013 218">
    <g>
        <path fill="#434343" d="M0 0H237V218H0z" transform="translate(-941.987 -315) translate(942 315)"/>
        <g>
            <path fill="#3c3c3c" d="M3329.781 8036.141a62.144 62.144 0 0 1-30.087-27.618v-58.546a61.932 61.932 0 1 1 79.075 86.164zm-8.252-51.531a4.179 4.179 0 0 0 4.167 4.167h28.578a4.18 4.18 0 0 0 4.169-4.167v-43.465a4.168 4.168 0 0 0-8.337 0v39.3H3325.7a4.179 4.179 0 0 0-4.171 4.165z" transform="translate(-941.987 -315) translate(-12376.354 -7898.136) translate(10018.646 394.817)"/>
        </g>
    </g>
</svg>
