<svg xmlns="http://www.w3.org/2000/svg" width="320" height="188.121" viewBox="0 0 320 188.121">
    <g>
        <path fill="#434343" d="M0 0H320V188.122H0z" transform="translate(-20 -898.5) translate(20 898.5)"/>
        <g>
            <path fill="#3c3c3c" d="M6467.721-829.627a62.14 62.14 0 0 1-30.087-27.614v-58.552a61.9 61.9 0 0 1 54.58-32.645 61.912 61.912 0 0 1 61.922 61.921 61.921 61.921 0 0 1-37.429 56.891zm-8.254-51.532a4.179 4.179 0 0 0 4.168 4.168h28.578a4.179 4.179 0 0 0 4.168-4.168v-43.464a4.179 4.179 0 0 0-4.168-4.168 4.181 4.181 0 0 0-4.168 4.168v39.3h-24.41a4.179 4.179 0 0 0-4.168 4.164z" transform="translate(-20 -898.5) translate(13.708 967.632) translate(-6430.292 948.439)"/>
        </g>
    </g>
</svg>
