<svg xmlns="http://www.w3.org/2000/svg" width="24" height="24" viewBox="0 0 24 24">
    <g>
        <path fill="#fff" d="M22.619 19.119a15.68 15.68 0 0 0-3.276-2.192c-.982-.471-1.341-.462-2.036.039-.578.418-.953.807-1.618.661a9.654 9.654 0 0 1-3.251-2.406 9.585 9.585 0 0 1-2.406-3.251c-.141-.671.248-1.04.661-1.618.5-.695.515-1.055.039-2.036A15.37 15.37 0 0 0 8.54 5.04c-.714-.714-.875-.559-1.268-.418a7.218 7.218 0 0 0-1.161.617 3.5 3.5 0 0 0-1.395 1.473c-.277.6-.6 1.711 1.035 4.617a25.762 25.762 0 0 0 4.529 6.041 25.862 25.862 0 0 0 6.041 4.529c2.906 1.633 4.019 1.312 4.617 1.035a3.444 3.444 0 0 0 1.473-1.395 7.218 7.218 0 0 0 .617-1.162c.15-.383.31-.543-.409-1.258z" transform="translate(-884 -2359) translate(882.51 2356.738)"/>
        <path fill="none" d="M0 0H24V24H0z" transform="translate(-884 -2359) translate(884 2359)"/>
    </g>
</svg>
